<svg xmlns="http://www.w3.org/2000/svg" version="1.1" xmlns:xlink="http://www.w3.org/1999/xlink" width="200" height="200"><svg xmlns="http://www.w3.org/2000/svg" version="1.1" xmlns:xlink="http://www.w3.org/1999/xlink" viewBox="0 0 200 200"><rect width="200" height="200" fill="url('#gradient')"></rect><defs><linearGradient id="SvgjsLinearGradient1021" gradientTransform="rotate(45 0.5 0.5)"><stop offset="0%" stop-color="#deae42"></stop><stop offset="100%" stop-color="#b84833"></stop></linearGradient></defs><g><g fill="#080421" transform="matrix(3.1839695975125237,0,0,3.1839695975125237,8.160624891689437,122.95833494387712)" stroke="#37af61" stroke-width="0.2"><path d="M10.79-2.54L10.79 0L0.87 0L0.87-2.15L5.44-6.95Q7.13-8.88 7.13-10.01L7.13-10.01Q7.13-10.93 6.73-11.41Q6.33-11.88 5.57-11.88L5.57-11.88Q4.81-11.88 4.35-11.25Q3.88-10.61 3.88-9.65L3.88-9.65L0.58-9.65Q0.58-10.96 1.23-12.07Q1.88-13.17 3.05-13.80Q4.21-14.42 5.64-14.42L5.64-14.42Q7.95-14.42 9.19-13.36Q10.44-12.29 10.44-10.30L10.44-10.30Q10.44-9.46 10.13-8.67Q9.81-7.87 9.16-7.00Q8.50-6.12 7.03-4.66L7.03-4.66L5.20-2.54L10.79-2.54ZM18.94-7.40L18.94-4.85L13.07-4.85L13.07-7.40L18.94-7.40ZM27.27-4.82L25.08-4.82L25.08 0L21.65 0L21.65-14.22L27.32-14.22Q28.96-14.22 30.21-13.62Q31.46-13.02 32.15-11.91Q32.84-10.80 32.84-9.39L32.84-9.39Q32.84-7.31 31.35-6.07Q29.86-4.82 27.27-4.82L27.27-4.82ZM25.08-11.57L25.08-7.47L27.32-7.47Q28.32-7.47 28.84-7.97Q29.37-8.47 29.37-9.38L29.37-9.38Q29.37-10.37 28.83-10.97Q28.29-11.56 27.36-11.57L27.36-11.57L25.08-11.57ZM39.35 0L34.67 0L34.67-14.22L39.25-14.22Q41.13-14.22 42.64-13.36Q44.14-12.51 44.99-10.95Q45.83-9.39 45.84-7.46L45.84-7.46L45.84-6.81Q45.84-4.85 45.01-3.31Q44.19-1.76 42.69-0.88Q41.19-0.01 39.35 0L39.35 0ZM39.25-11.57L38.10-11.57L38.10-2.64L39.29-2.64Q40.76-2.64 41.55-3.69Q42.34-4.74 42.34-6.81L42.34-6.81L42.34-7.42Q42.34-9.48 41.55-10.53Q40.76-11.57 39.25-11.57L39.25-11.57ZM56.55-8.30L56.55-5.66L51.03-5.66L51.03 0L47.60 0L47.60-14.22L57.11-14.22L57.11-11.57L51.03-11.57L51.03-8.30L56.55-8.30Z"></path></g></g></svg><style>@media (prefers-color-scheme: light) { :root { filter: none; } }
@media (prefers-color-scheme: dark) { :root { filter: none; } }
</style></svg>